<svg xmlns="http://www.w3.org/2000/svg" xmlns:xlink="http://www.w3.org/1999/xlink" viewBox="0 0 128.43724696356276 154.5" height="154.5" width="128.43724696356276" data-background-color="#c6c1ea" preserveAspectRatio="xMidYMid meet" id="tight-bounds"><g><svg viewBox="0 0 128.43724696356276 154.5" height="154.5" width="128.43724696356276"><g><svg viewBox="0 0 128.43724696356276 154.5" height="154.5" width="128.43724696356276"><g id="textblocktransform"><svg viewBox="0 0 128.43724696356276 154.5" height="154.5" width="128.43724696356276" id="textblock"><g><svg viewBox="0 0 128.43724696356276 154.5" height="154.5" width="128.43724696356276"><g transform="matrix(1,0,0,1,0,0)"><svg width="128.43724696356276" viewBox="2.200000047683716 -35.599998474121094 30.079998016357422 36.189998626708984" height="154.5" data-palette-color="#621e72"><path d="M32.28-14.43L32.28-2.39Q31.69-1.98 30.19-1.26 28.69-0.54 26.05 0.02 23.41 0.59 19.43 0.59L19.43 0.59Q14.09 0.59 10.22-1.18 6.35-2.95 4.27-6.92 2.2-10.89 2.2-17.43L2.2-17.43Q2.2-26.15 6.67-30.87 11.13-35.6 19.12-35.6L19.12-35.6Q22.92-35.6 25.2-34.86 27.47-34.13 28.64-33.15 29.81-32.18 30.27-31.45L30.27-31.45Q30.44-31.18 30.52-30.97 30.59-30.76 30.62-30.32L30.62-30.32Q30.69-29.74 30.65-28.61 30.62-27.49 30.47-26.64L30.47-26.64Q30.37-26.1 30.15-25.93L30.15-25.93Q30.05-25.83 29.81-25.76 29.57-25.68 29.08-25.68L29.08-25.68Q28.3-25.68 27.26-25.74 26.22-25.81 25.73-25.88L25.73-25.88Q25.15-25.98 24.89-26.16 24.63-26.34 24.34-26.73L24.34-26.73Q24.05-27.12 23.54-27.65 23.02-28.17 21.98-28.59 20.95-29 19.12-29L19.12-29Q15.09-29 12.79-26.09 10.5-23.17 10.5-17.7L10.5-17.7Q10.5-11.96 12.88-8.98 15.26-6.01 19.73-6.01L19.73-6.01Q21.97-6.01 23.03-6.34 24.1-6.67 24.39-6.84L24.39-6.84 24.39-14.43Q24.39-15.14 24.63-15.5L24.63-15.5Q25.73-17.11 27.71-18.9L27.71-18.9Q28.08-19.19 28.34-19.19L28.34-19.19Q28.64-19.19 28.96-18.9L28.96-18.9Q30.03-17.97 30.76-17.13 31.49-16.28 32.03-15.5L32.03-15.5Q32.28-15.11 32.28-14.43L32.28-14.43Z" opacity="1" transform="matrix(1,0,0,1,0,0)" fill="#621e72" class="wordmark-text-0" data-fill-palette-color="primary" id="text-0"/></svg></g></svg></g></svg></g></svg></g><g/></svg></g><defs/></svg>